<?xml version="1.0" encoding="UTF-8" standalone="no"?>
<svg
   version="1.1"
   x="0px"
   y="0px"
   viewBox="0 0 60 60"
   xml:space="preserve"
   id="svg14"
   sodipodi:docname="noun-location-5814244.svg"
   width="60"
   height="60"
   inkscape:version="1.2.2 (b0a84865, 2022-12-01)"
   xmlns:inkscape="http://www.inkscape.org/namespaces/inkscape"
   xmlns:sodipodi="http://sodipodi.sourceforge.net/DTD/sodipodi-0.dtd"
   xmlns="http://www.w3.org/2000/svg"
   xmlns:svg="http://www.w3.org/2000/svg"><defs
     id="defs18" /><sodipodi:namedview
     id="namedview16"
     pagecolor="#ffffff"
     bordercolor="#000000"
     borderopacity="0.25"
     inkscape:showpageshadow="2"
     inkscape:pageopacity="0.0"
     inkscape:pagecheckerboard="0"
     inkscape:deskcolor="#d1d1d1"
     showgrid="false"
     inkscape:zoom="3.1466667"
     inkscape:cx="29.713983"
     inkscape:cy="37.5"
     inkscape:window-width="1309"
     inkscape:window-height="456"
     inkscape:window-x="0"
     inkscape:window-y="37"
     inkscape:window-maximized="0"
     inkscape:current-layer="svg14" /><path
     d="m 34.58,43.17 c -0.39,-0.39 -1.02,-0.39 -1.41,0 l -1.41,1.41 -1.41,-1.41 c -0.39,-0.39 -1.02,-0.39 -1.41,0 -0.39,0.39 -0.39,1.02 0,1.41 l 0.41,0.41 h -1.59 c -2.21,0 -4,-1.79 -4,-4 v -1 c 0,-3.31 -2.69,-6 -6,-6 -2.21,0 -4,-1.79 -4,-4 v -3.82 c 0,-0.93 -0.22,-1.86 -0.63,-2.68 -0.25,-0.49 -0.85,-0.7 -1.34,-0.45 -0.49,0.25 -0.69,0.85 -0.45,1.34 0.28,0.55 0.42,1.17 0.42,1.79 v 3.82 c 0,3.31 2.69,6 6,6 2.21,0 4,1.79 4,4 v 1 c 0,3.31 2.69,6 6,6 h 1.59 l -0.41,0.41 c -0.39,0.39 -0.39,1.02 0,1.41 0.2,0.2 0.45,0.29 0.71,0.29 0.26,0 0.51,-0.1 0.71,-0.29 l 1.41,-1.41 1.41,1.41 c 0.2,0.2 0.45,0.29 0.71,0.29 0.26,0 0.51,-0.1 0.71,-0.29 0.39,-0.39 0.39,-1.02 0,-1.41 l -1.41,-1.41 1.41,-1.41 c 0.37,-0.39 0.37,-1.02 -0.02,-1.41 z"
     id="path2"
     style="fill:#ae132a;fill-opacity:1" /><path
     d="m 52.32,18.32 c 0.26,-0.84 0.42,-1.63 0.42,-2.32 0,-5.51 -4.49,-10 -10,-10 -5.51,0 -10,4.49 -10,10 0,0.6 0.12,1.28 0.32,2 H 9 c -1.65,0 -3,1.35 -3,3 v 30 c 0,1.65 1.35,3 3,3 h 42 c 1.65,0 3,-1.35 3,-3 V 21 c 0,-1.17 -0.69,-2.18 -1.68,-2.68 z M 42.74,8 c 4.41,0 8,3.59 8,8 0,3.43 -5.21,10.82 -8,14.39 -2.79,-3.58 -8,-10.96 -8,-14.39 0,-4.41 3.59,-8 8,-8 z M 52,51 c 0,0.55 -0.45,1 -1,1 H 9 C 8.45,52 8,51.55 8,51 V 21 c 0,-0.55 0.45,-1 1,-1 h 24.78 c 2.25,5.26 7.44,11.73 8.18,12.63 0.19,0.23 0.47,0.37 0.77,0.37 0.3,0 0.58,-0.14 0.77,-0.37 0.73,-0.89 5.79,-7.19 8.09,-12.41 C 51.84,20.41 52,20.68 52,21 Z"
     id="path4"
     style="fill:#4d4d4d;fill-opacity:1" /><path
     d="m 45.74,46.16 h -1.25 c -1.37,0 -2.65,-0.61 -3.51,-1.66 -0.86,-1.05 -1.21,-2.43 -0.95,-3.77 0.39,-1.97 -0.16,-4.06 -1.48,-5.57 l -2.61,-3 h 0.8 c 0.55,0 1,-0.45 1,-1 0,-0.55 -0.45,-1 -1,-1 h -2 v -2 c 0,-0.55 -0.45,-1 -1,-1 -0.55,0 -1,0.45 -1,1 v 2 h -2 c -0.55,0 -1,0.45 -1,1 0,0.55 0.45,1 1,1 h 2 v 2 c 0,0.55 0.45,1 1,1 0.55,0 1,-0.45 1,-1 v -0.33 l 2.3,2.64 c 0.92,1.05 1.3,2.5 1.03,3.87 -0.38,1.93 0.11,3.91 1.36,5.43 1.25,1.52 3.09,2.39 5.06,2.39 h 1.25 c 0.55,0 1,-0.45 1,-1 0,-0.55 -0.45,-1 -1,-1 z"
     id="path6"
     style="fill:#ae132a;fill-opacity:1" /><path
     d="m 47.74,16 c 0,-2.76 -2.24,-5 -5,-5 -2.76,0 -5,2.24 -5,5 0,2.76 2.24,5 5,5 2.76,0 5,-2.24 5,-5 z m -8,0 c 0,-1.65 1.35,-3 3,-3 1.65,0 3,1.35 3,3 0,1.65 -1.35,3 -3,3 -1.65,0 -3,-1.35 -3,-3 z"
     id="path8"
     style="fill:#ae132a;fill-opacity:1" /></svg>
